<svg width="500" height="500" viewBox="0 0 500 500" fill="none" xmlns="http://www.w3.org/2000/svg">
    <path
        d="M250.047 65.2925C298.819 65.641 345.475 85.2643 379.839 119.883C414.203 154.501 433.488 201.306 433.488 250.09C433.488 298.873 414.203 345.678 379.839 380.297C345.475 414.915 298.819 434.538 250.047 434.887C223.888 434.883 198.033 429.273 174.224 418.434L160.614 412.284C158.077 411.138 155.263 410.747 152.509 411.157L137.751 413.359L98.108 419.262C88.1444 420.746 79.5819 412.177 81.0728 402.215L86.9695 362.811L89.1723 347.969C89.5815 345.212 89.1869 342.395 88.0359 339.857L81.8385 326.189C70.9207 302.306 65.2658 276.355 65.2573 250.094C65.3147 201.1 84.799 154.128 119.436 119.483C154.073 84.8384 201.035 65.3499 250.019 65.2925H250.047ZM250.033 0.00474079C250.024 0.00789296 250.014 0.00949429 250.004 0.00948229C208.198 -0.0413718 167.049 10.4072 130.329 30.3971C93.6057 50.3894 62.4891 79.2853 39.8338 114.434C17.1785 149.582 3.70995 189.858 0.663688 231.567C-2.27845 271.85 4.5923 312.224 20.6584 349.234C21.7723 351.8 22.1787 354.623 21.7652 357.39L6.46608 459.753C3.48822 479.677 20.6143 496.811 40.5399 493.842L143.152 478.552C145.9 478.142 148.705 478.542 151.258 479.641C184.169 493.806 219.757 500.735 255.61 499.938C292.883 499.109 329.498 489.951 362.774 473.134C396.049 456.317 425.142 432.268 447.921 402.748C470.7 373.227 486.588 338.984 494.421 302.527C502.254 266.069 501.834 228.32 493.191 192.046C484.549 155.772 467.903 121.891 444.473 92.8851C421.042 63.8794 391.422 40.4835 357.78 24.4116C324.143 8.34186 287.339 0.00107623 250.062 1.04144e-07C250.052 -1.79638e-07 250.042 0.0016013 250.033 0.00474079Z"
        fill="#43BE64" />
    <path
        d="M251.511 329.268C213.316 329.252 176.021 317.738 144.535 296.243C141.953 294.493 139.744 292.255 138.033 289.656C136.322 287.057 135.142 284.148 134.562 281.096C133.981 278.044 134.011 274.908 134.65 271.868C135.288 268.827 136.523 265.941 138.283 263.375C140.044 260.809 142.295 258.612 144.91 256.911C147.524 255.21 150.45 254.038 153.52 253.46C156.59 252.883 159.744 252.913 162.803 253.548C165.861 254.183 168.764 255.41 171.346 257.16C195.041 273.024 222.958 281.498 251.526 281.498C280.093 281.498 308.01 273.024 331.705 257.16C336.918 253.626 343.331 252.295 349.531 253.46C355.731 254.626 361.212 258.192 364.767 263.375C368.323 268.558 369.662 274.932 368.489 281.096C367.317 287.26 363.729 292.709 358.516 296.243C327.022 317.744 289.716 329.257 251.511 329.268Z"
        fill="#43BE64" />
</svg>